<!DOCTYPE svg PUBLIC "-//W3C//DTD SVG 1.1//EN" "http://www.w3.org/Graphics/SVG/1.1/DTD/svg11.dtd">
<!-- Uploaded to: SVG Repo, www.svgrepo.com, Transformed by: SVG Repo Mixer Tools -->
<svg fill="#e01b24" height="800px" width="800px" version="1.1" id="Capa_1" xmlns="http://www.w3.org/2000/svg" xmlns:xlink="http://www.w3.org/1999/xlink" viewBox="0 0 329.328 329.328" xml:space="preserve">
<g id="SVGRepo_bgCarrier" stroke-width="0"/>
<g id="SVGRepo_tracerCarrier" stroke-linecap="round" stroke-linejoin="round"/>
<g id="SVGRepo_iconCarrier"> <path d="M164.666,0C73.871,0,0.004,73.871,0.004,164.672c0.009,90.792,73.876,164.656,164.662,164.656 c90.793,0,164.658-73.865,164.658-164.658C329.324,73.871,255.459,0,164.666,0z M164.666,30c31.734,0,60.933,11.042,83.975,29.477 L59.478,248.638c-18.431-23.04-29.471-52.237-29.474-83.967C30.004,90.413,90.413,30,164.666,30z M164.666,299.328 c-31.733,0-60.934-11.042-83.977-29.477L269.854,80.691c18.431,23.043,29.471,52.244,29.471,83.979 C299.324,238.921,238.917,299.328,164.666,299.328z"/> </g>
</svg>